<?xml version="1.0" encoding="UTF-8"?><svg id="Layer_2" xmlns="http://www.w3.org/2000/svg" width="444.31" height="111.85" xmlns:xlink="http://www.w3.org/1999/xlink" viewBox="0 0 444.31 111.85"><defs><style>.cls-1{fill:none;}.cls-2{fill:url(#linear-gradient);}.cls-3{clip-path:url(#clippath);}.cls-4{fill:#fff;}</style><clipPath id="clippath"><path class="cls-1" d="M0,55.92c0,30.89,25.04,55.92,55.92,55.92,5.41,0,10.63-.77,15.58-2.2L36.11,39.04l-13.18,25.83h20.72l3.52,7.54H19.01l-2.75,4.52H4.94L36.11,15.09l46.59,89.94c17.37-9.49,29.15-27.92,29.15-49.11,0-8.36-1.84-16.29-5.13-23.41l-25.85,49.7L49.66,21.12h11.72l19.97,38.06,18.34-38.06C89.45,8.25,73.65,0,55.92,0,25.04,0,0,25.04,0,55.92"/></clipPath><linearGradient id="linear-gradient" x1="-850.93" y1="186.91" x2="-849.39" y2="186.91" gradientTransform="translate(-61809.55 13657.05) rotate(-180) scale(72.77)" gradientUnits="userSpaceOnUse"><stop offset="0" stop-color="#70c5ef"/><stop offset="0" stop-color="#70c5ef"/><stop offset=".3" stop-color="#6dc3ed"/><stop offset=".48" stop-color="#65bee8"/><stop offset=".63" stop-color="#56b6df"/><stop offset=".76" stop-color="#42abd3"/><stop offset=".88" stop-color="#289dc3"/><stop offset=".99" stop-color="#088bb0"/><stop offset="1" stop-color="#068aaf"/></linearGradient></defs><g id="Layer_1-2"><g><g class="cls-3"><rect class="cls-2" x="-22.86" y="-22.86" width="157.57" height="157.57" transform="translate(-22.86 62.82) rotate(-50)"/></g><path class="cls-4" d="M164.1,55.79h-12.41l-2.36,6.99h-7.53l12.79-33.9h6.56l12.86,33.9h-7.53l-2.38-6.99Zm-10.5-5.66h8.59l-4.32-12.69-4.27,12.69Z"/><path class="cls-4" d="M179.2,62.77V28.87h10.57c3.02,0,5.72,.67,8.1,2.01,2.38,1.34,4.24,3.25,5.58,5.73,1.34,2.48,2,5.29,2,8.44v1.56c0,3.15-.66,5.95-1.97,8.41-1.31,2.45-3.17,4.36-5.56,5.71-2.39,1.35-5.09,2.03-8.09,2.05h-10.64Zm7.08-28.25v22.63h3.42c2.77,0,4.88-.89,6.35-2.68,1.46-1.78,2.21-4.34,2.24-7.66v-1.79c0-3.45-.72-6.06-2.17-7.84-1.45-1.78-3.56-2.67-6.34-2.67h-3.49Z"/><path class="cls-4" d="M212.58,62.77V28.87h10.57c3.02,0,5.72,.67,8.1,2.01,2.38,1.34,4.24,3.25,5.58,5.73,1.34,2.48,2,5.29,2,8.44v1.56c0,3.15-.66,5.95-1.97,8.41-1.31,2.45-3.17,4.36-5.56,5.71-2.39,1.35-5.09,2.03-8.09,2.05h-10.64Zm7.08-28.25v22.63h3.42c2.77,0,4.88-.89,6.35-2.68,1.46-1.78,2.21-4.34,2.24-7.66v-1.79c0-3.45-.72-6.06-2.17-7.84-1.45-1.78-3.56-2.67-6.34-2.67h-3.49Z"/><polygon class="cls-4" points="274.15 56.84 283.96 28.87 288.91 28.87 276.17 62.77 272.16 62.77 259.45 28.87 264.38 28.87 274.15 56.84"/><rect class="cls-4" x="301.57" y="28.87" width="4.53" height="33.9"/><path class="cls-4" d="M331.75,47.66c-3.89-1.1-6.71-2.46-8.48-4.06-1.77-1.61-2.65-3.59-2.65-5.95,0-2.67,1.08-4.88,3.24-6.62,2.16-1.75,4.97-2.62,8.43-2.62,2.36,0,4.46,.45,6.31,1.35,1.85,.9,3.28,2.14,4.29,3.73,1.01,1.58,1.52,3.32,1.52,5.19h-4.55c0-2.06-.66-3.67-1.98-4.85-1.32-1.18-3.18-1.76-5.59-1.76-2.23,0-3.97,.49-5.23,1.46-1.25,.97-1.88,2.32-1.88,4.05,0,1.38,.59,2.56,1.78,3.51,1.19,.96,3.21,1.83,6.06,2.63,2.85,.79,5.09,1.67,6.7,2.62,1.61,.95,2.81,2.07,3.59,3.34,.78,1.27,1.17,2.77,1.17,4.49,0,2.75-1.09,4.95-3.26,6.6-2.17,1.65-5.07,2.48-8.71,2.48-2.36,0-4.56-.45-6.6-1.34-2.04-.89-3.62-2.11-4.73-3.67-1.11-1.55-1.66-3.31-1.66-5.29h4.55c0,2.05,.77,3.67,2.3,4.86,1.53,1.19,3.58,1.78,6.14,1.78,2.39,0,4.22-.48,5.5-1.44,1.27-.96,1.91-2.27,1.91-3.94s-.59-2.94-1.77-3.85c-1.18-.91-3.32-1.8-6.42-2.69"/><rect class="cls-4" x="358.35" y="28.87" width="4.53" height="33.9"/><path class="cls-4" d="M404.35,46.91c0,3.32-.57,6.22-1.7,8.7-1.13,2.48-2.74,4.37-4.81,5.67-2.07,1.3-4.5,1.96-7.27,1.96s-5.1-.66-7.19-1.97c-2.09-1.31-3.72-3.18-4.87-5.61-1.16-2.43-1.75-5.24-1.78-8.44v-2.45c0-3.26,.57-6.14,1.72-8.64,1.15-2.5,2.77-4.41,4.87-5.74,2.1-1.33,4.5-1.99,7.21-1.99s5.18,.65,7.28,1.97,3.72,3.21,4.85,5.71c1.13,2.49,1.7,5.39,1.7,8.7v2.14Zm-4.51-2.19c0-4.02-.82-7.11-2.45-9.26-1.64-2.15-3.93-3.22-6.87-3.22s-5.12,1.07-6.76,3.22-2.49,5.14-2.54,8.95v2.49c0,3.9,.83,6.96,2.49,9.19,1.66,2.23,3.94,3.34,6.85,3.34s5.19-1.05,6.79-3.16c1.6-2.1,2.43-5.12,2.48-9.05v-2.51Z"/><polygon class="cls-4" points="444.31 62.77 439.75 62.77 422.46 36.65 422.46 62.77 417.91 62.77 417.91 28.87 422.46 28.87 439.8 55.11 439.8 28.87 444.31 28.87 444.31 62.77"/><path class="cls-4" d="M142.76,91.72v-12.46h4.01c1.1,0,2.09,.25,2.97,.75,.88,.5,1.56,1.2,2.06,2.11,.49,.91,.74,1.93,.75,3.06v.57c0,1.14-.24,2.16-.72,3.07-.48,.9-1.16,1.61-2.04,2.12-.88,.51-1.85,.77-2.93,.77h-4.1Zm3-10.14v7.83h1.04c.86,0,1.52-.31,1.99-.92,.46-.61,.69-1.52,.69-2.73v-.54c0-1.2-.23-2.11-.69-2.72-.46-.61-1.14-.92-2.02-.92h-1.01Z"/><rect class="cls-4" x="156.75" y="79.26" width="2.99" height="12.46"/><path class="cls-4" d="M174.48,90.18c-.46,.51-1.14,.93-2.03,1.24-.89,.31-1.87,.47-2.93,.47-1.63,0-2.94-.5-3.91-1.5-.98-1-1.5-2.39-1.57-4.17v-1.08c0-1.23,.21-2.3,.64-3.21,.43-.92,1.05-1.62,1.86-2.11,.81-.49,1.74-.74,2.8-.74,1.55,0,2.76,.36,3.62,1.07,.86,.71,1.36,1.77,1.5,3.18h-2.89c-.1-.7-.33-1.19-.67-1.49-.34-.3-.83-.45-1.46-.45-.75,0-1.33,.32-1.74,.96-.41,.64-.62,1.55-.63,2.74v.75c0,1.24,.21,2.18,.64,2.8,.42,.62,1.09,.94,2.01,.94,.78,0,1.36-.17,1.75-.52v-1.93h-2.09v-2.06h5.09v5.12Z"/><rect class="cls-4" x="178.89" y="79.26" width="2.99" height="12.46"/><polygon class="cls-4" points="195.96 81.58 192.22 81.58 192.22 91.72 189.21 91.72 189.21 81.58 185.54 81.58 185.54 79.26 195.96 79.26 195.96 81.58"/><path class="cls-4" d="M205.72,89.39h-4.12l-.72,2.33h-3.21l4.57-12.46h2.82l4.6,12.46h-3.23l-.73-2.33Zm-3.4-2.32h2.68l-1.34-4.32-1.33,4.32Z"/><polygon class="cls-4" points="216.04 89.41 221.27 89.41 221.27 91.72 213.04 91.72 213.04 79.26 216.04 79.26 216.04 89.41"/><path class="cls-4" d="M238.23,88.41c0-.44-.16-.78-.47-1.03-.31-.24-.86-.5-1.64-.76-.78-.26-1.42-.52-1.92-.76-1.61-.79-2.42-1.88-2.42-3.27,0-.69,.2-1.3,.6-1.83,.4-.53,.97-.94,1.71-1.23,.74-.3,1.56-.44,2.48-.44s1.7,.16,2.41,.48c.71,.32,1.26,.77,1.66,1.36,.39,.59,.59,1.26,.59,2.02h-2.99c0-.51-.16-.9-.47-1.18-.31-.28-.73-.42-1.26-.42s-.96,.12-1.27,.36c-.31,.24-.47,.54-.47,.9,0,.32,.17,.61,.51,.87,.34,.26,.94,.53,1.81,.8,.86,.28,1.57,.58,2.12,.9,1.35,.77,2.02,1.84,2.02,3.21,0,1.09-.41,1.94-1.23,2.57-.82,.62-1.95,.93-3.38,.93-1.01,0-1.92-.18-2.74-.54-.82-.36-1.43-.86-1.85-1.49-.41-.63-.62-1.36-.62-2.18h3.01c0,.67,.17,1.16,.52,1.48,.34,.32,.91,.47,1.68,.47,.5,0,.89-.11,1.18-.32,.29-.21,.43-.51,.43-.9"/><rect class="cls-4" x="245.43" y="79.26" width="2.99" height="12.46"/><path class="cls-4" d="M263.17,90.18c-.46,.51-1.14,.93-2.03,1.24-.89,.31-1.87,.47-2.93,.47-1.63,0-2.94-.5-3.91-1.5-.98-1-1.5-2.39-1.57-4.17v-1.08c0-1.23,.21-2.3,.64-3.21,.43-.92,1.05-1.62,1.86-2.11,.81-.49,1.74-.74,2.8-.74,1.55,0,2.76,.36,3.62,1.07,.86,.71,1.36,1.77,1.5,3.18h-2.89c-.1-.7-.32-1.19-.67-1.49-.34-.3-.83-.45-1.46-.45-.75,0-1.33,.32-1.74,.96-.41,.64-.62,1.55-.63,2.74v.75c0,1.24,.21,2.18,.64,2.8,.42,.62,1.09,.94,2.01,.94,.78,0,1.36-.17,1.75-.52v-1.93h-2.09v-2.06h5.09v5.12Z"/><polygon class="cls-4" points="277.77 91.72 274.78 91.72 270.37 83.97 270.37 91.72 267.37 91.72 267.37 79.26 270.37 79.26 274.78 87.02 274.78 79.26 277.77 79.26 277.77 91.72"/><path class="cls-4" d="M289.35,89.39h-4.12l-.72,2.33h-3.21l4.57-12.46h2.82l4.6,12.46h-3.23l-.73-2.33Zm-3.4-2.32h2.68l-1.34-4.32-1.33,4.32Z"/><path class="cls-4" d="M306.68,90.18c-.46,.51-1.14,.93-2.03,1.24-.89,.31-1.87,.47-2.93,.47-1.63,0-2.94-.5-3.91-1.5-.98-1-1.5-2.39-1.57-4.17v-1.08c0-1.23,.21-2.3,.64-3.21,.43-.92,1.05-1.62,1.86-2.11,.81-.49,1.74-.74,2.8-.74,1.55,0,2.76,.36,3.62,1.07,.86,.71,1.36,1.77,1.5,3.18h-2.89c-.1-.7-.32-1.19-.67-1.49-.34-.3-.83-.45-1.46-.45-.75,0-1.33,.32-1.74,.96-.41,.64-.62,1.55-.63,2.74v.75c0,1.24,.21,2.18,.64,2.8,.42,.62,1.09,.94,2.01,.94,.78,0,1.36-.17,1.74-.52v-1.93h-2.09v-2.06h5.09v5.12Z"/><polygon class="cls-4" points="318.61 86.43 313.89 86.43 313.89 89.41 319.47 89.41 319.47 91.72 310.88 91.72 310.88 79.26 319.48 79.26 319.48 81.58 313.89 81.58 313.89 84.21 318.61 84.21 318.61 86.43"/><path class="cls-4" d="M336.38,88.41c0-.44-.16-.78-.47-1.03-.31-.24-.86-.5-1.64-.76-.78-.26-1.42-.52-1.92-.76-1.61-.79-2.42-1.88-2.42-3.27,0-.69,.2-1.3,.6-1.83,.4-.53,.97-.94,1.71-1.23,.74-.3,1.56-.44,2.48-.44s1.7,.16,2.41,.48c.71,.32,1.26,.77,1.66,1.36,.39,.59,.59,1.26,.59,2.02h-3c0-.51-.16-.9-.47-1.18-.31-.28-.73-.42-1.26-.42s-.96,.12-1.27,.36c-.31,.24-.47,.54-.47,.9,0,.32,.17,.61,.51,.87,.34,.26,.94,.53,1.81,.8,.86,.28,1.57,.58,2.12,.9,1.35,.77,2.02,1.84,2.02,3.21,0,1.09-.41,1.94-1.23,2.57-.82,.62-1.95,.93-3.38,.93-1.01,0-1.92-.18-2.74-.54-.82-.36-1.43-.86-1.85-1.49-.41-.63-.62-1.36-.62-2.18h3.01c0,.67,.17,1.16,.52,1.48,.35,.32,.91,.47,1.68,.47,.5,0,.89-.11,1.18-.32,.29-.21,.43-.51,.43-.9"/><path class="cls-4" d="M353.93,85.75c0,1.22-.22,2.29-.67,3.23-.45,.93-1.09,1.65-1.92,2.16-.83,.5-1.78,.76-2.84,.76s-2-.24-2.82-.73c-.82-.49-1.46-1.19-1.92-2.09-.46-.91-.7-1.95-.72-3.12v-.7c0-1.22,.22-2.3,.67-3.23,.45-.93,1.09-1.65,1.93-2.16,.83-.51,1.79-.76,2.85-.76s2,.25,2.82,.75c.83,.5,1.47,1.22,1.93,2.14,.46,.93,.69,1.99,.7,3.19v.57Zm-3.05-.52c0-1.24-.21-2.18-.62-2.82-.41-.64-1.01-.96-1.78-.96-1.51,0-2.3,1.13-2.39,3.39v.91c0,1.22,.19,2.16,.6,2.82,.4,.66,1.01,.98,1.8,.98s1.34-.32,1.75-.97c.41-.64,.62-1.57,.63-2.78v-.57Z"/><polygon class="cls-4" points="360.94 89.41 366.16 89.41 366.16 91.72 357.93 91.72 357.93 79.26 360.94 79.26 360.94 89.41"/><path class="cls-4" d="M379.45,79.26v8.15c0,.92-.2,1.72-.59,2.4-.39,.67-.96,1.19-1.69,1.54-.74,.35-1.61,.53-2.61,.53-1.52,0-2.71-.39-3.59-1.18-.87-.79-1.32-1.86-1.33-3.23v-8.21h3.02v8.27c.03,1.36,.67,2.04,1.9,2.04,.62,0,1.09-.17,1.41-.51,.32-.34,.48-.9,.48-1.67v-8.14h3Z"/><polygon class="cls-4" points="393.55 81.58 389.82 81.58 389.82 91.72 386.81 91.72 386.81 81.58 383.14 81.58 383.14 79.26 393.55 79.26 393.55 81.58"/><rect class="cls-4" x="397.48" y="79.26" width="2.99" height="12.46"/><path class="cls-4" d="M415.56,85.75c0,1.22-.22,2.29-.67,3.23-.45,.93-1.09,1.65-1.92,2.16-.83,.5-1.78,.76-2.84,.76s-2-.24-2.82-.73c-.82-.49-1.46-1.19-1.92-2.09-.46-.91-.7-1.95-.72-3.12v-.7c0-1.22,.22-2.3,.67-3.23,.45-.93,1.09-1.65,1.93-2.16,.83-.51,1.79-.76,2.85-.76s2,.25,2.82,.75c.83,.5,1.47,1.22,1.93,2.14,.46,.93,.69,1.99,.7,3.19v.57Zm-3.05-.52c0-1.24-.21-2.18-.62-2.82-.41-.64-1.01-.96-1.78-.96-1.51,0-2.3,1.13-2.39,3.39v.91c0,1.22,.19,2.16,.6,2.82,.4,.66,1.01,.98,1.81,.98,.76,0,1.34-.32,1.75-.97,.41-.64,.62-1.57,.62-2.78v-.57Z"/><polygon class="cls-4" points="429.97 91.72 426.98 91.72 422.57 83.97 422.57 91.72 419.57 91.72 419.57 79.26 422.57 79.26 426.98 87.02 426.98 79.26 429.97 79.26 429.97 91.72"/><path class="cls-4" d="M440.75,88.41c0-.44-.16-.78-.47-1.03-.31-.24-.86-.5-1.64-.76-.78-.26-1.42-.52-1.92-.76-1.61-.79-2.42-1.88-2.42-3.27,0-.69,.2-1.3,.6-1.83,.4-.53,.97-.94,1.71-1.23,.74-.3,1.56-.44,2.48-.44s1.7,.16,2.41,.48c.71,.32,1.26,.77,1.66,1.36,.39,.59,.59,1.26,.59,2.02h-3c0-.51-.16-.9-.47-1.18-.31-.28-.73-.42-1.26-.42s-.96,.12-1.27,.36-.47,.54-.47,.9c0,.32,.17,.61,.51,.87,.34,.26,.94,.53,1.81,.8,.86,.28,1.57,.58,2.12,.9,1.35,.77,2.02,1.84,2.02,3.21,0,1.09-.41,1.94-1.23,2.57-.82,.62-1.95,.93-3.38,.93-1.01,0-1.92-.18-2.74-.54-.82-.36-1.43-.86-1.85-1.49-.41-.63-.62-1.36-.62-2.18h3.01c0,.67,.17,1.16,.52,1.48,.35,.32,.91,.47,1.68,.47,.5,0,.89-.11,1.18-.32,.29-.21,.43-.51,.43-.9"/></g></g></svg>